<?xml version="1.0" encoding="utf-8"?>
<!-- Generator: Adobe Illustrator 16.0.0, SVG Export Plug-In . SVG Version: 6.00 Build 0)  -->
<!DOCTYPE svg PUBLIC "-//W3C//DTD SVG 1.1//EN" "http://www.w3.org/Graphics/SVG/1.1/DTD/svg11.dtd">
<svg version="1.1" id="Layer_1" xmlns="http://www.w3.org/2000/svg" xmlns:xlink="http://www.w3.org/1999/xlink" x="0px" y="0px"
	 width="512px" height="512px" viewBox="0 0 512 512" enable-background="new 0 0 512 512" xml:space="preserve">
<rect fill="#00A6D6" width="512" height="512"/>
<g>
	<g>
		<g>
			<polygon fill="#191919" points="508.771,102.931 505.263,108.47 508.76,102.957 			"/>
			<polygon fill="#191919" points="492.567,115.487 257.417,297.718 341.487,327.135 375.368,299.535 			"/>
			<polygon fill="#191919" points="382.454,302.384 350.521,330.298 257.166,512.635 257.166,297.912 257.13,297.94 257.13,512.944 
				425.494,337.413 382.471,302.356 			"/>
		</g>
		<g>
			<polygon fill="#222222" points="508.767,102.948 382.386,302.096 382.273,302.194 425.494,337.413 			"/>
			<polygon points="492.688,115.299 375.368,299.535 341.465,327.154 350.521,330.298 382.454,302.384 508.771,102.931 
				500.755,108.827 			"/>
			<polygon fill="#222222" points="257.166,297.629 257.166,512.635 350.521,330.298 			"/>
		</g>
	</g>
	<g>
		<g>
			<path d="M288.11,151.872c1.571,0.837,3.368,1.506,5.306,1.966c1.94,0.46,4.019,0.712,6.149,0.712
				c0.183,0,0.366-0.002,0.551-0.006c0.185-0.003,0.368-0.009,0.554-0.017c0.185-0.008,0.368-0.017,0.554-0.029
				c0.186-0.011,0.371-0.024,0.556-0.039c2.339-0.192,4.475-0.677,6.334-1.388c1.852-0.708,3.424-1.64,4.645-2.728
				c1.213-1.083,2.074-2.32,2.517-3.646c0.438-1.318,0.461-2.723,0.001-4.15c-0.423-1.307-1.215-2.519-2.289-3.602
				c-1.072-1.077-2.427-2.025-3.981-2.812c-1.55-0.783-3.303-1.405-5.176-1.831c-1.872-0.425-3.868-0.656-5.909-0.656
				c-0.176,0-0.352,0.002-0.529,0.006c-0.177,0.003-0.354,0.008-0.531,0.016c-0.176,0.007-0.354,0.016-0.531,0.026
				c-0.178,0.011-0.355,0.022-0.533,0.037c-2.247,0.177-4.312,0.624-6.124,1.283c-1.816,0.662-3.382,1.536-4.624,2.565
				c-1.248,1.033-2.171,2.225-2.689,3.514c-0.524,1.297-0.643,2.692-0.275,4.126c0.339,1.327,1.062,2.571,2.09,3.692
				C285.201,150.037,286.543,151.037,288.11,151.872z"/>
			<path d="M257.13,0.945L5.491,102.931l161.301,125.002l-34.858-27.013l0.334-8.186c0.159-3.794,0.907-7.497,2.174-11.066
				c1.251-3.522,3.007-6.919,5.199-10.151c2.166-3.194,4.758-6.229,7.715-9.074c2.923-2.813,6.206-5.442,9.789-7.854
				c-3.506-1.819-6.656-3.859-9.396-6.09c-2.715-2.21-5.023-4.603-6.879-7.143c-1.836-2.515-3.224-5.172-4.12-7.94
				c-0.886-2.738-1.292-5.58-1.173-8.498c0.223-5.596,2.355-10.954,5.961-15.849c3.531-4.794,8.49-9.162,14.487-12.904
				c5.899-3.68,12.837-6.772,20.476-9.088c7.561-2.292,15.86-3.838,24.607-4.446l89.011-6.182c1.167-1.779,2.771-3.46,4.749-4.991
				c1.964-1.521,4.301-2.897,6.954-4.082c2.641-1.179,5.598-2.17,8.82-2.93c3.211-0.756,6.693-1.283,10.401-1.534
				c0.42-0.028,0.845-0.054,1.266-0.075c0.422-0.021,0.843-0.038,1.265-0.053c0.421-0.014,0.842-0.024,1.261-0.031
				c0.422-0.007,0.841-0.011,1.262-0.011c4.891,0,9.713,0.474,14.278,1.348c4.585,0.877,8.93,2.163,12.839,3.788
				c3.938,1.637,7.447,3.623,10.317,5.889c2.9,2.29,5.154,4.872,6.538,7.675c1.522,3.084,1.854,6.148,1.124,9.049
				c-0.738,2.939-2.561,5.705-5.32,8.146c-2.792,2.466-6.531,4.593-11.051,6.217c-4.554,1.637-9.881,2.757-15.789,3.201
				c-0.457,0.035-0.916,0.064-1.373,0.09c-0.458,0.025-0.917,0.046-1.374,0.064c-0.459,0.017-0.915,0.03-1.372,0.038
				c-0.456,0.008-0.915,0.012-1.37,0.012c-4.045,0-8.041-0.328-11.891-0.939c-3.838-0.61-7.519-1.5-10.945-2.627
				c-3.412-1.12-6.563-2.472-9.366-4.008c-2.783-1.526-5.216-3.232-7.214-5.072l-90.947,6.601
				c-4.119,0.299-8.009,1.058-11.525,2.178c-3.534,1.125-6.703,2.619-9.35,4.381c-2.669,1.776-4.813,3.83-6.273,6.06
				c-1.471,2.251-2.245,4.686-2.144,7.196c0.092,2.322,0.923,4.509,2.368,6.489c0.461,0.632,0.991,1.24,1.573,1.827
				c0.208,0.209,0.423,0.416,0.645,0.62c0.088,0.08,0.174,0.161,0.265,0.24c0.306,0.271,0.622,0.537,0.953,0.795
				c0.009,0.007,0.018,0.013,0.027,0.021c0.325,0.252,0.666,0.498,1.014,0.739c0.099,0.07,0.203,0.137,0.307,0.207
				c0.283,0.189,0.573,0.374,0.871,0.555c0.095,0.058,0.189,0.118,0.286,0.176c0.055,0.033,0.105,0.067,0.161,0.098
				c0.084,0.049,0.178,0.091,0.263,0.14c0.48,0.273,0.977,0.535,1.488,0.788c0.153,0.074,0.301,0.151,0.457,0.224
				c0.622,0.294,1.26,0.575,1.923,0.837c0.116,0.047,0.238,0.089,0.356,0.133c0.578,0.223,1.171,0.431,1.777,0.628
				c0.177,0.058,0.354,0.117,0.535,0.172c0.718,0.222,1.45,0.432,2.205,0.618c0.021,0.005,0.041,0.013,0.062,0.018
				c0.071,0.017,0.147,0.03,0.219,0.046c0.683,0.165,1.381,0.312,2.091,0.447c0.197,0.037,0.392,0.074,0.591,0.109
				c0.8,0.142,1.61,0.269,2.437,0.369c0.063,0.008,0.129,0.013,0.191,0.02c0.771,0.091,1.556,0.161,2.348,0.217
				c0.22,0.016,0.44,0.03,0.662,0.042c0.859,0.049,1.726,0.084,2.606,0.089c0.332-0.037,0.663-0.072,0.995-0.107
				c0.332-0.036,0.666-0.069,0.999-0.102c0.334-0.032,0.669-0.063,1.004-0.093c0.335-0.03,0.671-0.057,1.006-0.083l47.568-3.731
				c1.395-2.481,3.319-4.782,5.692-6.854c2.352-2.055,5.146-3.889,8.309-5.455c3.14-1.556,6.647-2.851,10.448-3.837
				c3.787-0.983,7.876-1.662,12.202-1.991c0.479-0.037,0.958-0.068,1.436-0.094c0.479-0.027,0.957-0.05,1.432-0.068
				c0.478-0.018,0.953-0.031,1.428-0.041c0.476-0.009,0.95-0.013,1.422-0.013c5.52,0,10.922,0.602,16.011,1.715
				c5.11,1.118,9.923,2.758,14.223,4.833c4.337,2.091,8.168,4.63,11.261,7.534c3.131,2.938,5.515,6.254,6.901,9.859
				c1.527,3.976,1.702,7.932,0.685,11.685c-1.032,3.809-3.295,7.4-6.606,10.575c-3.354,3.213-7.772,5.986-13.056,8.107
				c-5.326,2.139-11.501,3.605-18.295,4.188c-0.553,0.048-1.105,0.089-1.658,0.124c-0.553,0.036-1.104,0.064-1.655,0.088
				c-0.552,0.023-1.102,0.041-1.652,0.053c-0.548,0.011-1.097,0.017-1.645,0.017c-4.462,0-8.842-0.383-13.041-1.114
				c-4.188-0.729-8.187-1.8-11.9-3.176c-3.695-1.369-7.103-3.036-10.131-4.961c-3.008-1.911-5.637-4.074-7.804-6.448l-44.196,3.647
				c-0.346,0.028-0.693,0.074-1.044,0.13c-0.35,0.055-0.705,0.122-1.06,0.188c-0.356,0.066-0.715,0.133-1.078,0.189
				c-0.362,0.058-0.727,0.106-1.095,0.136c-0.402,0.034-0.805,0.065-1.208,0.093s-0.807,0.055-1.21,0.078s-0.805,0.045-1.207,0.065
				c-0.402,0.021-0.803,0.039-1.202,0.057c-4.133,0.686-8.007,1.841-11.49,3.368c-3.504,1.535-6.623,3.452-9.217,5.649
				c-2.615,2.216-4.703,4.723-6.111,7.419c-1.423,2.724-2.155,5.644-2.037,8.653l1.872,47.537l79.271,61.431l251.641-195.01
				L257.13,0.945z"/>
			<path d="M315.003,85.363c0.374,1.028,1.082,1.992,2.052,2.858c0.973,0.871,2.209,1.644,3.632,2.287
				c1.429,0.646,3.044,1.164,4.771,1.517c1.73,0.356,3.57,0.549,5.442,0.549c0.161,0,0.322-0.001,0.483-0.004
				c0.162-0.003,0.323-0.007,0.486-0.014c0.161-0.005,0.323-0.013,0.484-0.021c0.163-0.009,0.324-0.02,0.486-0.031
				c0.261-0.019,0.508-0.052,0.763-0.078c0.248-0.025,0.502-0.044,0.746-0.077c0.213-0.028,0.414-0.069,0.623-0.103
				c0.265-0.042,0.534-0.08,0.792-0.13c0.202-0.041,0.392-0.091,0.589-0.136c0.248-0.056,0.502-0.108,0.742-0.172
				c0.284-0.076,0.553-0.165,0.822-0.25c0.135-0.043,0.278-0.079,0.41-0.125c0.002,0,0.003-0.001,0.004-0.001
				c0.27-0.093,0.521-0.197,0.776-0.3c0.121-0.048,0.251-0.091,0.369-0.143c0.225-0.098,0.431-0.206,0.643-0.31
				c0.131-0.065,0.272-0.125,0.397-0.192c0.203-0.108,0.386-0.227,0.574-0.343c0.119-0.072,0.246-0.139,0.358-0.214
				c0.147-0.098,0.275-0.203,0.414-0.306c0.134-0.099,0.279-0.195,0.403-0.298c0.002,0,0.004-0.001,0.004-0.004
				c0.104-0.086,0.192-0.179,0.289-0.269c0.139-0.126,0.284-0.25,0.409-0.381c0.111-0.118,0.2-0.24,0.301-0.361
				c0.091-0.11,0.191-0.216,0.273-0.328c0.1-0.14,0.178-0.286,0.263-0.428c0.059-0.1,0.13-0.196,0.183-0.296
				c0.065-0.13,0.109-0.266,0.164-0.399c0.048-0.118,0.107-0.234,0.145-0.354c0-0.001,0-0.001,0.001-0.001
				c0.043-0.136,0.062-0.276,0.091-0.415c0.025-0.121,0.063-0.239,0.079-0.362c0.098-0.789-0.021-1.607-0.381-2.437
				c-0.438-1.014-1.199-1.955-2.202-2.795c-1-0.837-2.244-1.575-3.658-2.187c-1.409-0.609-2.989-1.095-4.666-1.427
				c-1.676-0.331-3.451-0.511-5.255-0.511c-0.154,0-0.311,0.001-0.466,0.004c-0.155,0.003-0.311,0.007-0.467,0.013
				s-0.312,0.012-0.468,0.02c-0.156,0.008-0.313,0.018-0.47,0.029c-1.973,0.136-3.769,0.485-5.328,0.998
				c-1.566,0.514-2.896,1.194-3.932,1.996c-1.005,0.777-1.726,1.67-2.119,2.633c-0.015,0.032-0.035,0.064-0.048,0.097
				c-0.046,0.119-0.068,0.241-0.104,0.361c-0.031,0.111-0.071,0.221-0.094,0.333c-0.034,0.161-0.047,0.324-0.062,0.487
				c-0.011,0.109-0.03,0.218-0.032,0.329c-0.004,0.184,0.02,0.371,0.038,0.558c0.011,0.093,0.009,0.185,0.025,0.28
				C314.824,84.791,314.898,85.077,315.003,85.363z"/>
		</g>
		<path fill="#FFFFFF" d="M265.947,165.749c3.029,1.925,6.437,3.593,10.131,4.961c3.715,1.376,7.714,2.448,11.9,3.176
			c4.201,0.73,8.579,1.114,13.042,1.114c0.547,0,1.096-0.005,1.646-0.017c0.549-0.012,1.1-0.029,1.65-0.052
			c0.553-0.023,1.104-0.053,1.656-0.089c0.552-0.035,1.104-0.076,1.658-0.124c6.793-0.582,12.969-2.048,18.295-4.187
			c5.281-2.122,9.701-4.895,13.055-8.108c3.313-3.173,5.574-6.765,6.606-10.575c1.019-3.753,0.844-7.709-0.685-11.685
			c-1.387-3.605-3.771-6.922-6.9-9.86c-3.092-2.902-6.923-5.442-11.261-7.534c-4.3-2.074-9.113-3.713-14.224-4.833
			c-5.087-1.113-10.491-1.715-16.009-1.715c-0.474,0-0.947,0.004-1.423,0.013c-0.475,0.009-0.949,0.022-1.427,0.04
			c-0.476,0.018-0.954,0.041-1.433,0.068c-0.479,0.027-0.956,0.059-1.437,0.094c-4.324,0.329-8.415,1.008-12.2,1.991
			c-3.803,0.986-7.311,2.282-10.45,3.837c-3.16,1.566-5.956,3.399-8.309,5.455c-2.371,2.072-4.296,4.374-5.69,6.854l-47.569,3.731
			c-0.336,0.026-0.672,0.054-1.006,0.083c-0.335,0.03-0.669,0.061-1.004,0.093c-0.333,0.033-0.667,0.067-0.999,0.102
			s-0.663,0.07-0.995,0.107c-0.88-0.005-1.746-0.04-2.606-0.089c-0.222-0.013-0.442-0.027-0.662-0.042
			c-0.791-0.055-1.577-0.126-2.348-0.217c-0.063-0.007-0.128-0.012-0.19-0.02c-0.828-0.1-1.638-0.228-2.438-0.369
			c-0.2-0.036-0.395-0.073-0.592-0.11c-0.709-0.134-1.406-0.282-2.09-0.447c-0.072-0.017-0.147-0.029-0.219-0.046
			c-0.021-0.005-0.042-0.013-0.062-0.018c-0.753-0.186-1.486-0.396-2.205-0.618c-0.181-0.055-0.357-0.115-0.535-0.173
			c-0.606-0.198-1.199-0.405-1.777-0.627c-0.118-0.046-0.239-0.087-0.356-0.133c-0.663-0.263-1.301-0.543-1.923-0.837
			c-0.154-0.072-0.303-0.149-0.457-0.224c-0.512-0.252-1.007-0.516-1.488-0.788c-0.085-0.048-0.178-0.09-0.263-0.14
			c-0.055-0.032-0.106-0.065-0.161-0.098c-0.097-0.057-0.19-0.117-0.286-0.176c-0.297-0.181-0.587-0.366-0.871-0.555
			c-0.103-0.069-0.206-0.137-0.307-0.207c-0.349-0.242-0.689-0.487-1.014-0.739c-0.009-0.007-0.019-0.014-0.027-0.021
			c-0.332-0.258-0.646-0.525-0.953-0.795c-0.09-0.079-0.176-0.16-0.265-0.239c-0.222-0.204-0.437-0.41-0.645-0.621
			c-0.582-0.587-1.111-1.195-1.572-1.827c-1.444-1.981-2.277-4.168-2.368-6.489c-0.101-2.511,0.673-4.946,2.143-7.197
			c1.459-2.229,3.604-4.283,6.273-6.059c2.648-1.763,5.816-3.256,9.35-4.381c3.518-1.12,7.407-1.879,11.525-2.178l90.948-6.601
			c1.997,1.841,4.432,3.546,7.214,5.072c2.802,1.536,5.955,2.887,9.366,4.008c3.427,1.126,7.108,2.017,10.946,2.627
			c3.849,0.611,7.845,0.939,11.889,0.939c0.458,0,0.914-0.004,1.371-0.012c0.457-0.009,0.914-0.021,1.371-0.038
			c0.458-0.018,0.916-0.038,1.374-0.064c0.458-0.026,0.917-0.055,1.374-0.09c5.907-0.444,11.233-1.564,15.789-3.201
			c4.521-1.625,8.26-3.751,11.051-6.217c2.76-2.441,4.583-5.207,5.32-8.146c0.729-2.901,0.399-5.964-1.125-9.049
			c-1.384-2.803-3.638-5.385-6.538-7.675c-2.869-2.267-6.378-4.253-10.317-5.89c-3.908-1.625-8.252-2.911-12.839-3.788
			c-4.565-0.874-9.388-1.347-14.278-1.347c-0.419,0-0.839,0.003-1.26,0.01c-0.42,0.007-0.841,0.018-1.263,0.031
			c-0.421,0.015-0.842,0.032-1.264,0.054s-0.846,0.047-1.267,0.075c-3.709,0.25-7.19,0.777-10.401,1.534
			c-3.223,0.759-6.179,1.751-8.818,2.93c-2.653,1.185-4.991,2.561-6.956,4.082c-1.979,1.531-3.582,3.211-4.749,4.991l-89.011,6.182
			c-8.748,0.608-17.046,2.155-24.606,4.446c-7.64,2.316-14.577,5.408-20.478,9.088c-5.998,3.742-10.955,8.109-14.487,12.904
			c-3.605,4.896-5.738,10.252-5.961,15.849c-0.118,2.918,0.287,5.76,1.173,8.497c0.896,2.769,2.284,5.426,4.121,7.941
			c1.854,2.541,4.163,4.933,6.88,7.143c2.739,2.229,5.889,4.271,9.395,6.09c-3.583,2.411-6.866,5.042-9.789,7.854
			c-2.957,2.845-5.55,5.88-7.715,9.074c-2.191,3.232-3.948,6.629-5.199,10.151c-1.267,3.569-2.017,7.272-2.174,11.066l-0.334,8.186
			l45.925,35.59l-1.874-47.537c-0.118-3.009,0.614-5.929,2.037-8.652c1.408-2.696,3.495-5.203,6.111-7.419
			c2.594-2.198,5.713-4.114,9.217-5.65c3.484-1.527,7.357-2.682,11.491-3.368c0.398-0.018,0.798-0.036,1.201-0.056
			c0.401-0.021,0.804-0.043,1.207-0.066s0.808-0.05,1.209-0.078c0.404-0.028,0.808-0.059,1.209-0.093
			c0.368-0.03,0.733-0.078,1.095-0.136c0.361-0.058,0.721-0.124,1.077-0.189c0.356-0.066,0.711-0.132,1.061-0.188
			c0.351-0.056,0.699-0.103,1.044-0.13l44.196-3.647C260.312,161.675,262.94,163.837,265.947,165.749z M282.353,141.094
			c0.521-1.29,1.443-2.481,2.689-3.515c1.243-1.029,2.809-1.903,4.624-2.564c1.813-0.658,3.878-1.106,6.124-1.283
			c0.179-0.014,0.356-0.026,0.534-0.037c0.178-0.01,0.354-0.019,0.532-0.026c0.176-0.007,0.354-0.012,0.53-0.016
			c0.177-0.003,0.352-0.005,0.529-0.005c2.042,0,4.037,0.231,5.908,0.656c1.875,0.426,3.627,1.048,5.176,1.83
			c1.556,0.786,2.91,1.735,3.981,2.812c1.076,1.083,1.866,2.295,2.289,3.602c0.461,1.428,0.438,2.832,0,4.15
			c-0.442,1.326-1.304,2.563-2.518,3.646c-1.221,1.088-2.792,2.02-4.645,2.729c-1.856,0.71-3.994,1.195-6.334,1.388
			c-0.184,0.016-0.37,0.029-0.556,0.039c-0.185,0.011-0.369,0.021-0.554,0.029c-0.185,0.007-0.368,0.013-0.553,0.017
			c-0.184,0.004-0.367,0.005-0.551,0.005c-2.132,0-4.209-0.25-6.149-0.712c-1.938-0.461-3.734-1.129-5.307-1.966
			c-1.566-0.835-2.907-1.834-3.941-2.96c-1.028-1.122-1.752-2.365-2.091-3.691C281.711,143.784,281.829,142.389,282.353,141.094z
			 M314.713,83.672c0.001-0.11,0.022-0.219,0.031-0.329c0.017-0.163,0.028-0.327,0.063-0.487c0.022-0.112,0.062-0.222,0.095-0.333
			c0.034-0.121,0.058-0.243,0.104-0.361c0.013-0.033,0.032-0.065,0.047-0.098c0.395-0.963,1.114-1.856,2.119-2.633
			c1.037-0.802,2.366-1.481,3.932-1.996c1.561-0.513,3.356-0.861,5.329-0.999c0.156-0.011,0.313-0.02,0.47-0.029
			c0.156-0.008,0.311-0.015,0.467-0.02c0.157-0.005,0.312-0.01,0.467-0.013c0.157-0.002,0.312-0.004,0.467-0.004
			c1.804,0,3.578,0.18,5.255,0.511c1.677,0.332,3.257,0.817,4.666,1.426c1.413,0.612,2.656,1.35,3.658,2.188
			c1.003,0.84,1.763,1.782,2.202,2.795c0.358,0.83,0.478,1.648,0.379,2.437c-0.015,0.123-0.053,0.241-0.078,0.362
			c-0.028,0.139-0.047,0.278-0.09,0.415c-0.001,0-0.001,0.001-0.001,0.002c-0.037,0.121-0.098,0.236-0.146,0.354
			c-0.055,0.134-0.097,0.269-0.165,0.399c-0.051,0.102-0.122,0.197-0.182,0.296c-0.084,0.143-0.162,0.289-0.263,0.428
			c-0.081,0.112-0.183,0.219-0.272,0.329c-0.101,0.121-0.19,0.244-0.302,0.361c-0.124,0.13-0.271,0.254-0.408,0.381
			c-0.097,0.089-0.186,0.182-0.29,0.269c-0.001,0.001-0.002,0.002-0.004,0.003c-0.124,0.103-0.269,0.199-0.402,0.298
			c-0.139,0.103-0.268,0.208-0.414,0.306c-0.112,0.075-0.24,0.142-0.358,0.214c-0.188,0.116-0.372,0.234-0.575,0.343
			c-0.125,0.067-0.267,0.127-0.397,0.192c-0.211,0.105-0.418,0.213-0.643,0.311c-0.117,0.051-0.248,0.094-0.368,0.143
			c-0.255,0.103-0.507,0.207-0.777,0.3c-0.001,0-0.003,0.001-0.004,0.001c-0.129,0.046-0.273,0.082-0.41,0.125
			c-0.271,0.086-0.538,0.174-0.823,0.251c-0.238,0.064-0.492,0.115-0.741,0.172c-0.196,0.044-0.385,0.095-0.589,0.135
			c-0.257,0.051-0.527,0.089-0.793,0.131c-0.207,0.034-0.409,0.074-0.623,0.103c-0.241,0.033-0.495,0.052-0.745,0.077
			c-0.254,0.026-0.501,0.059-0.761,0.078c-0.164,0.011-0.325,0.022-0.487,0.03c-0.162,0.009-0.323,0.016-0.486,0.022
			c-0.161,0.006-0.323,0.011-0.484,0.014c-0.162,0.002-0.323,0.004-0.483,0.004c-1.873,0-3.712-0.193-5.443-0.549
			c-1.727-0.354-3.342-0.871-4.771-1.517c-1.424-0.645-2.658-1.417-3.632-2.287c-0.969-0.867-1.678-1.83-2.052-2.858
			c-0.104-0.288-0.179-0.573-0.228-0.854c-0.017-0.094-0.015-0.186-0.024-0.28C314.732,84.043,314.71,83.856,314.713,83.672z"/>
	</g>
	<g>
		<polygon fill="#090909" points="132.063,201.018 5.491,102.931 88.766,337.413 172.966,425.199 		"/>
		<polygon fill="#D1D1D1" points="173.131,425.267 203.943,457.454 177.859,236.508 131.934,200.919 		"/>
		<polygon fill="#090909" points="177.613,236.318 203.83,457.379 257.13,512.944 257.13,297.94 		"/>
	</g>
</g>
</svg>
