<?xml version="1.0" encoding="utf-8"?>
<!-- Generator: Adobe Illustrator 16.0.0, SVG Export Plug-In . SVG Version: 6.00 Build 0)  -->
<!DOCTYPE svg PUBLIC "-//W3C//DTD SVG 1.1//EN" "http://www.w3.org/Graphics/SVG/1.1/DTD/svg11.dtd">
<svg version="1.1" xmlns="http://www.w3.org/2000/svg" xmlns:xlink="http://www.w3.org/1999/xlink" x="0px" y="0px" width="1550px"
	 height="466px" viewBox="-44.922 -61.593 1550 466" enable-background="new -44.922 -61.593 1550 466" xml:space="preserve">
<g id="Layer_1">
</g>
<g id="Layer_2">
	<rect x="-42.922" y="-62.593" fill="#00A6D6" width="1548" height="468"/>
	<g>
		<path fill="#FFFFFF" d="M695.869,36.775H553.596c-7.652,0-13.857,6.341-13.857,13.993c0,7.654,6.205,13.993,13.857,13.993h57.559
			v227.42c0,7.653,6.341,13.857,13.993,13.857c7.653,0,13.993-6.204,13.993-13.857V64.761h56.729
			c7.652,0,13.857-6.339,13.857-13.993C709.727,43.116,703.521,36.775,695.869,36.775z"/>
		<path fill="#FFFFFF" d="M491.595,109.214h-45.577c-12.565,0-22.788-9.675-22.788-22.156c0-12.479,10.223-22.156,22.788-22.156
			h65.081c7.653,0,13.857-6.339,13.857-13.993c0-7.653-6.205-13.994-13.857-13.994h-65.081c-27.848,0-50.503,22.382-50.503,50.144
			c0,27.764,22.655,50.144,50.503,50.144h45.577c12.491,0,21.605,10.644,21.605,23.163v95.156c0,12.865-9.114,22.393-21.605,22.393
			h-91.358c-7.652,0-13.857,6.34-13.857,13.994s6.205,13.993,13.857,13.993h91.358c27.565,0,49.592-22.446,49.592-50.38v-95.156
			C541.187,132.302,519.627,109.214,491.595,109.214z"/>
		<path fill="#FFFFFF" d="M767.518,64.901h73.396c7.653,0,13.858-6.339,13.858-13.993c0-7.653-6.205-13.994-13.858-13.994h-73.396
			c-27.918,0-50.631,22.746-50.631,50.445c0,15.626,7.486,29.711,18.74,38.931c-8.43,8.932-13.303,20.972-13.303,34.074v95.156
			c0,27.934,22.298,50.38,50.429,50.38h68.16c7.653,0,13.858-6.339,13.858-13.993s-6.205-13.994-13.858-13.994h-68.16
			c-12.63,0-23.22-9.957-23.22-22.393v-95.156c0-12.312,10.371-23.163,23.22-23.163h40.444c7.653,0,13.857-6.339,13.857-13.993
			s-6.204-13.994-13.857-13.994h-40.444c-0.884,0-1.764,0.576-2.638,0.62c-0.922-0.193-1.875-0.019-2.853-0.019
			c-12.706,0-22.661-9.83-22.661-22.457C744.602,74.941,754.882,64.901,767.518,64.901z"/>
		<path fill="#FFFFFF" d="M372.488,155.556V88.124c0-13.495-5.183-26.309-14.623-35.698c-9.412-9.359-22.004-14.728-35.489-14.728
			h-62.821c-13.468,0-26.393,5.33-35.899,14.626c-9.626,9.41-15.202,22.25-15.202,35.761v203.173
			c0,7.652,6.339,13.858,13.993,13.858c7.654,0,13.994-6.206,13.994-13.858V162.319c0-0.337,0.189-1.093,0.189-1.437
			c0-12.395,10.36-22.897,22.925-22.897h62.821c11.202,0,19.793,8.908,22.125,19.501v133.771c0,7.652,6.34,13.858,13.994,13.858
			c7.653,0,13.993-6.206,13.993-13.858V164.547c0-0.996,0.358-2.028,0.358-3.092C372.846,159.459,372.488,157.492,372.488,155.556z
			 M322.376,109.998h-62.821c-8.217,0-16.118,3.081-23.114,6.557v-28.47c0-12.474,10.308-22.399,23.114-22.399h62.821
			c12.577,0,22.125,9.94,22.125,22.438v28.238C337.504,113.005,330.43,109.998,322.376,109.998z"/>
		<path fill="#FFFFFF" d="M176.665,37.823h-79.14c-1.118,0-2.285-0.25-3.494-0.25c-27.849,0-50.504,22.761-50.504,50.609
			c0,14.179,5.572,27.057,15.014,36.238c-9.922,9.186-16.455,22.333-16.455,36.853v130.109c0,7.652,6.34,13.858,13.993,13.858
			c7.654,0,13.994-6.206,13.994-13.858V161.273c0-11.872,9.489-22.042,21.263-22.906c0.657,0.096,1.498-0.256,2.182-0.256h46.193
			c7.653,0,13.857-6.339,13.857-13.994s-6.205-13.994-13.857-13.994H95.997c-0.342,0-0.685,0.469-1.034,0.447
			c-0.575-0.073-1.158,0.155-1.753,0.155c-0.241,0-0.478,0.152-0.716,0.155c-11.851-0.793-21.25-10.611-21.25-22.661
			c0-11.52,8.592-21.104,19.704-22.617c0.834,0.158,1.691,0.208,2.571,0.208h83.146c7.652,0,13.858-6.339,13.858-13.993
			C190.523,44.164,184.317,37.823,176.665,37.823z"/>
		<path fill="#FFFFFF" d="M1025.516,109.742c-7.654,0-13.993,6.204-13.993,13.856v115.929L898.497,44.151
			c-3.136-5.435-9.279-8.085-15.335-6.461c-6.06,1.622-10.02,7.114-10.02,13.387V291.74c0,7.653,5.952,13.857,13.604,13.857
			c7.653,0,13.605-6.204,13.605-13.857V102.828l112.56,195.375c3.135,5.434,9.899,8.083,15.955,6.46
			c6.06-1.621,10.643-7.111,10.643-13.384V123.598C1039.51,115.946,1033.169,109.742,1025.516,109.742z"/>
		<g>
			<path fill="#090909" d="M1502.562,34.849l0.009-0.023 M1502.57,34.826l-223.155-90.441L1056.26,34.826l73.85,207.939
				l149.306,155.664l149.306-155.664L1502.57,34.826z M1390.553,211.701l0.016-0.024l0,0L1390.553,211.701z"/>
			<polygon fill="#191919" points="1502.57,34.826 1499.459,39.737 1502.562,34.849 			"/>
			<polygon fill="#4D4D4D" points="1488.202,45.96 1279.67,207.563 1354.224,233.652 1384.269,209.175 			"/>
			<polygon fill="#4D4D4D" points="1390.553,211.701 1362.377,236.455 1279.73,398.153 1279.73,207.736 1279.73,207.76 
				1279.73,398.429 1428.879,242.765 1390.647,211.677 			"/>
			<polygon fill="#6E6E6E" points="1502.566,34.841 1390.491,211.446 1390.393,211.533 1428.721,242.765 			"/>
			<polygon points="1488.309,45.795 1384.269,209.175 1354.204,233.668 1362.235,236.455 1390.553,211.701 1502.57,34.826 
				1495.463,40.054 			"/>
			<polygon fill="#6E6E6E" points="1279.73,207.486 1279.73,398.153 1362.52,236.455 			"/>
			<path d="M1306.888,78.227c1.394,0.742,2.987,1.336,4.705,1.743c1.722,0.41,3.563,0.632,5.454,0.632
				c0.162,0,0.324-0.002,0.487-0.005c0.163-0.004,0.327-0.009,0.491-0.016c0.163-0.007,0.327-0.015,0.491-0.025
				c0.163-0.009,0.328-0.021,0.492-0.035c2.074-0.17,3.969-0.601,5.616-1.229c1.644-0.629,3.037-1.455,4.118-2.421
				c1.077-0.96,1.841-2.058,2.233-3.232c0.389-1.169,0.408-2.416,0-3.681c-0.375-1.16-1.076-2.235-2.03-3.193
				c-0.95-0.955-2.151-1.798-3.53-2.494c-1.374-0.694-2.929-1.245-4.591-1.623c-1.659-0.377-3.429-0.582-5.239-0.582
				c-0.156,0-0.313,0.002-0.47,0.005s-0.313,0.008-0.471,0.014s-0.314,0.015-0.472,0.023c-0.158,0.01-0.315,0.021-0.474,0.032
				c-1.992,0.157-3.823,0.555-5.431,1.139c-1.611,0.586-3,1.361-4.102,2.273c-1.105,0.917-1.924,1.974-2.385,3.117
				c-0.465,1.149-0.57,2.387-0.246,3.659c0.301,1.177,0.942,2.279,1.855,3.273C1304.31,76.6,1305.498,77.488,1306.888,78.227z"/>
			<path fill="#212121" d="M1279.415-55.615L1056.26,34.826l143.043,110.853l-30.912-23.955l0.297-7.26
				c0.14-3.364,0.805-6.647,1.928-9.813c1.109-3.124,2.666-6.136,4.61-9.003c1.92-2.831,4.22-5.524,6.842-8.047
				c2.593-2.495,5.504-4.826,8.681-6.965c-3.109-1.613-5.902-3.423-8.332-5.399c-2.408-1.961-4.455-4.082-6.1-6.335
				c-1.629-2.23-2.859-4.587-3.654-7.042c-0.786-2.428-1.145-4.948-1.04-7.536c0.197-4.963,2.089-9.713,5.286-14.055
				c3.132-4.252,7.528-8.125,12.848-11.442c5.231-3.264,11.384-6.007,18.158-8.06c6.705-2.033,14.064-3.404,21.822-3.943
				l78.936-5.481c1.034-1.578,2.457-3.069,4.211-4.427c1.742-1.349,3.814-2.568,6.168-3.619c2.341-1.046,4.963-1.926,7.82-2.599
				c2.848-0.671,5.937-1.138,9.224-1.36c0.374-0.024,0.749-0.047,1.123-0.065c0.375-0.02,0.748-0.035,1.122-0.048
				s0.747-0.021,1.119-0.027c0.374-0.007,0.746-0.01,1.118-0.01c4.338,0,8.613,0.42,12.662,1.195
				c4.066,0.778,7.919,1.919,11.386,3.359c3.493,1.451,6.604,3.213,9.149,5.223c2.571,2.03,4.57,4.32,5.798,6.806
				c1.352,2.735,1.644,5.453,0.997,8.025c-0.654,2.606-2.271,5.059-4.719,7.224c-2.476,2.188-5.791,4.073-9.801,5.514
				c-4.038,1.451-8.762,2.444-14.001,2.838c-0.406,0.03-0.813,0.058-1.219,0.081c-0.406,0.022-0.812,0.041-1.218,0.056
				c-0.406,0.016-0.812,0.025-1.218,0.033c-0.405,0.008-0.811,0.012-1.215,0.012c-3.587,0-7.131-0.291-10.545-0.833
				c-3.403-0.542-6.668-1.331-9.707-2.331c-3.024-0.992-5.819-2.191-8.306-3.554c-2.468-1.354-4.626-2.865-6.397-4.498
				l-80.652,5.854c-3.653,0.266-7.103,0.938-10.222,1.932c-3.134,0.998-5.943,2.322-8.292,3.886
				c-2.366,1.574-4.269,3.396-5.563,5.373c-1.305,1.997-1.99,4.155-1.9,6.382c0.081,2.059,0.818,3.998,2.1,5.755
				c0.409,0.561,0.879,1.1,1.395,1.62c0.185,0.186,0.375,0.369,0.571,0.55c0.078,0.071,0.155,0.143,0.235,0.212
				c0.271,0.24,0.551,0.478,0.845,0.706c0.008,0.007,0.017,0.012,0.024,0.018c0.288,0.225,0.59,0.441,0.899,0.655
				c0.089,0.063,0.181,0.122,0.271,0.184c0.252,0.167,0.509,0.331,0.772,0.492c0.085,0.052,0.168,0.104,0.254,0.155
				c0.048,0.029,0.094,0.059,0.143,0.088c0.074,0.043,0.157,0.08,0.232,0.123c0.426,0.243,0.866,0.475,1.32,0.7
				c0.136,0.065,0.268,0.133,0.404,0.198c0.551,0.26,1.118,0.509,1.706,0.742c0.103,0.041,0.211,0.078,0.315,0.118
				c0.513,0.196,1.039,0.382,1.576,0.557c0.158,0.052,0.315,0.104,0.476,0.153c0.637,0.197,1.286,0.383,1.954,0.548
				c0.019,0.005,0.036,0.011,0.055,0.016c0.063,0.016,0.131,0.026,0.195,0.042c0.605,0.146,1.225,0.276,1.853,0.396
				c0.175,0.033,0.349,0.066,0.524,0.098c0.71,0.125,1.429,0.237,2.162,0.327c0.056,0.007,0.113,0.011,0.169,0.018
				c0.685,0.081,1.38,0.142,2.083,0.192c0.194,0.014,0.39,0.025,0.586,0.037c0.763,0.043,1.531,0.075,2.312,0.079
				c0.294-0.032,0.588-0.064,0.882-0.096c0.295-0.03,0.591-0.061,0.886-0.089c0.297-0.029,0.594-0.057,0.891-0.084
				c0.297-0.025,0.595-0.05,0.894-0.073l42.184-3.309c1.236-2.2,2.943-4.24,5.047-6.079c2.086-1.822,4.564-3.448,7.367-4.837
				c2.785-1.38,5.896-2.528,9.267-3.403c3.358-0.872,6.985-1.475,10.82-1.766c0.425-0.032,0.85-0.061,1.273-0.084
				c0.424-0.024,0.848-0.044,1.27-0.06c0.423-0.017,0.846-0.028,1.266-0.036c0.422-0.008,0.842-0.012,1.262-0.012
				c4.894,0,9.686,0.534,14.196,1.521c4.532,0.992,8.801,2.445,12.613,4.284c3.847,1.855,7.244,4.107,9.986,6.682
				c2.776,2.605,4.891,5.546,6.119,8.744c1.356,3.524,1.511,7.033,0.608,10.361c-0.916,3.378-2.922,6.563-5.859,9.378
				c-2.974,2.848-6.892,5.308-11.577,7.189c-4.723,1.896-10.199,3.197-16.224,3.714c-0.491,0.041-0.981,0.078-1.471,0.109
				c-0.49,0.031-0.979,0.058-1.468,0.078s-0.977,0.036-1.465,0.046c-0.486,0.011-0.973,0.017-1.459,0.017
				c-3.957,0-7.84-0.341-11.564-0.988c-3.713-0.646-7.26-1.596-10.554-2.816c-3.276-1.213-6.298-2.692-8.984-4.398
				c-2.666-1.695-4.998-3.613-6.92-5.719l-39.193,3.234c-0.307,0.024-0.615,0.065-0.926,0.115c-0.312,0.05-0.625,0.108-0.941,0.167
				c-0.315,0.058-0.635,0.117-0.955,0.168c-0.321,0.051-0.645,0.094-0.972,0.121c-0.356,0.029-0.714,0.057-1.071,0.082
				c-0.358,0.024-0.716,0.047-1.073,0.068c-0.357,0.021-0.714,0.04-1.07,0.059c-0.356,0.018-0.712,0.033-1.066,0.05
				c-3.665,0.607-7.101,1.633-10.189,2.986c-3.107,1.361-5.873,3.061-8.174,5.01c-2.319,1.965-4.17,4.188-5.419,6.58
				c-1.262,2.414-1.911,5.004-1.806,7.672l1.66,42.156l70.298,54.477L1502.57,34.826L1279.415-55.615z"/>
			<path d="M1330.737,19.248c0.331,0.911,0.959,1.765,1.819,2.533c0.862,0.772,1.958,1.458,3.221,2.028
				c1.267,0.574,2.699,1.032,4.23,1.347c1.535,0.315,3.166,0.486,4.826,0.486c0.144,0,0.286-0.001,0.43-0.003
				c0.143-0.003,0.286-0.006,0.43-0.013c0.144-0.004,0.287-0.011,0.43-0.019c0.145-0.009,0.288-0.018,0.432-0.027
				c0.23-0.017,0.45-0.046,0.676-0.069c0.22-0.022,0.445-0.039,0.66-0.068c0.19-0.024,0.368-0.061,0.553-0.091
				c0.235-0.037,0.476-0.07,0.703-0.115c0.18-0.036,0.348-0.081,0.522-0.121c0.22-0.05,0.445-0.096,0.657-0.152
				c0.253-0.066,0.49-0.146,0.73-0.222c0.12-0.038,0.248-0.07,0.363-0.111c0.001,0,0.003,0,0.004,0
				c0.238-0.083,0.462-0.176,0.688-0.267c0.106-0.043,0.222-0.081,0.326-0.126c0.199-0.087,0.383-0.183,0.571-0.275
				c0.116-0.058,0.24-0.109,0.352-0.17c0.181-0.097,0.343-0.202,0.511-0.304c0.104-0.063,0.218-0.124,0.317-0.189
				c0.13-0.087,0.244-0.181,0.367-0.271c0.118-0.089,0.247-0.174,0.357-0.265c0.002-0.002,0.002-0.002,0.003-0.003
				c0.093-0.077,0.17-0.159,0.257-0.238c0.122-0.112,0.252-0.222,0.362-0.337c0.099-0.104,0.179-0.214,0.267-0.32
				c0.08-0.098,0.17-0.191,0.242-0.29c0.089-0.124,0.157-0.254,0.232-0.381c0.053-0.088,0.115-0.173,0.161-0.263
				c0.06-0.115,0.089-0.236,0.136-0.354c0.043-0.104,0.12-0.207,0.12-0.313c0-0.001,0-0.002,0-0.002c0-0.12,0.063-0.245,0.09-0.367
				c0.022-0.106,0.061-0.213,0.074-0.321c0.087-0.699-0.016-1.426-0.334-2.16c-0.39-0.899-1.063-1.734-1.952-2.479
				c-0.887-0.743-1.989-1.398-3.243-1.94c-1.249-0.54-2.65-0.97-4.138-1.265c-1.485-0.294-3.061-0.453-4.66-0.453
				c-0.137,0-0.274,0.001-0.412,0.004c-0.139,0.002-0.276,0.005-0.415,0.011c-0.138,0.005-0.276,0.011-0.415,0.018
				c-0.139,0.008-0.277,0.016-0.416,0.025c-1.749,0.122-3.342,0.431-4.727,0.886c-1.388,0.455-2.567,1.059-3.485,1.769
				c-0.892,0.689-1.53,1.481-1.88,2.336c-0.013,0.029-0.03,0.057-0.042,0.086c-0.04,0.104-0.061,0.214-0.092,0.32
				c-0.029,0.099-0.063,0.196-0.084,0.295c-0.031,0.143-0.041,0.287-0.055,0.433c-0.01,0.097-0.027,0.192-0.029,0.291
				c-0.003,0.163,0.017,0.328,0.034,0.494c0.009,0.082,0.008,0.164,0.022,0.248C1330.578,18.74,1330.645,18.993,1330.737,19.248z"/>
			<polygon fill="#2C2C2C" points="1168.504,121.809 1056.26,34.826 1130.109,242.765 1204.778,320.615 			"/>
			<path fill="#D1D1D1" d="M1379.572,15.769c-1.228-2.485-3.227-4.775-5.798-6.806c-2.545-2.01-5.656-3.771-9.149-5.223
				c-3.467-1.44-7.319-2.581-11.386-3.359c-4.049-0.775-8.324-1.195-12.662-1.195c-0.372,0-0.744,0.003-1.118,0.01
				c-0.372,0.006-0.745,0.015-1.119,0.027s-0.747,0.028-1.122,0.048c-0.374,0.019-0.749,0.041-1.123,0.065
				c-3.287,0.223-6.376,0.689-9.224,1.36c-2.857,0.673-5.479,1.553-7.82,2.599c-2.354,1.051-4.426,2.271-6.168,3.619
				c-1.754,1.357-3.177,2.849-4.211,4.427l-78.936,5.481c-7.758,0.539-15.117,1.91-21.822,3.943
				c-6.774,2.053-12.927,4.796-18.158,8.06c-5.319,3.317-9.716,7.19-12.848,11.442c-3.197,4.342-5.089,9.092-5.286,14.055
				c-0.104,2.588,0.254,5.108,1.04,7.536c0.795,2.455,2.025,4.812,3.654,7.042c1.645,2.253,3.691,4.374,6.1,6.335
				c2.43,1.977,5.223,3.786,8.332,5.399c-3.177,2.139-6.088,4.47-8.681,6.965c-2.622,2.522-4.922,5.216-6.842,8.047
				c-1.944,2.867-3.501,5.879-4.61,9.003c-1.123,3.166-1.788,6.449-1.928,9.813l-0.297,7.26l36.533,198.951l27.324,28.544
				l-23.131-195.935l-1.66-42.156c-0.105-2.668,0.544-5.258,1.806-7.672c1.249-2.393,3.1-4.615,5.419-6.58
				c2.301-1.949,5.066-3.648,8.174-5.01c3.089-1.354,6.524-2.379,10.189-2.986c0.354-0.017,0.71-0.032,1.066-0.05
				c0.356-0.019,0.713-0.038,1.07-0.059c0.357-0.021,0.715-0.044,1.073-0.068c0.357-0.025,0.715-0.053,1.071-0.082
				c0.327-0.027,0.65-0.07,0.972-0.121c0.32-0.051,0.64-0.11,0.955-0.168c0.316-0.059,0.63-0.117,0.941-0.167
				c0.311-0.05,0.619-0.091,0.926-0.115l39.193-3.234c1.922,2.105,4.254,4.023,6.92,5.719c2.687,1.706,5.708,3.186,8.984,4.398
				c3.294,1.221,6.841,2.171,10.554,2.816c3.725,0.647,7.607,0.988,11.564,0.988c0.486,0,0.973-0.006,1.459-0.017
				c0.488-0.01,0.976-0.025,1.465-0.046s0.978-0.047,1.468-0.078c0.489-0.031,0.979-0.068,1.471-0.109
				c6.024-0.517,11.501-1.817,16.224-3.714c4.686-1.882,8.604-4.342,11.577-7.189c2.938-2.814,4.943-6,5.859-9.378
				c0.902-3.328,0.748-6.837-0.608-10.361c-1.229-3.198-3.343-6.139-6.119-8.744c-2.742-2.574-6.14-4.826-9.986-6.682
				c-3.813-1.839-8.081-3.292-12.613-4.284c-4.511-0.987-9.303-1.521-14.196-1.521c-0.42,0-0.84,0.004-1.262,0.012
				c-0.42,0.008-0.843,0.02-1.266,0.036c-0.422,0.016-0.846,0.035-1.27,0.06c-0.424,0.023-0.849,0.052-1.273,0.084
				c-3.835,0.291-7.462,0.894-10.82,1.766c-3.371,0.875-6.481,2.023-9.267,3.403c-2.803,1.389-5.281,3.015-7.367,4.837
				c-2.104,1.839-3.811,3.879-5.047,6.079l-42.184,3.309c-0.299,0.023-0.597,0.048-0.894,0.073
				c-0.297,0.027-0.594,0.055-0.891,0.084c-0.295,0.028-0.591,0.059-0.886,0.089c-0.294,0.031-0.588,0.063-0.882,0.096
				c-0.78-0.004-1.549-0.036-2.312-0.079c-0.196-0.012-0.392-0.023-0.586-0.037c-0.703-0.051-1.398-0.111-2.083-0.192
				c-0.056-0.007-0.113-0.011-0.169-0.018c-0.733-0.09-1.452-0.202-2.162-0.327c-0.176-0.031-0.35-0.064-0.524-0.098
				c-0.628-0.119-1.247-0.249-1.853-0.396c-0.064-0.016-0.132-0.026-0.195-0.042c-0.019-0.005-0.036-0.011-0.055-0.016
				c-0.668-0.165-1.317-0.351-1.954-0.548c-0.16-0.05-0.317-0.102-0.476-0.153c-0.537-0.175-1.063-0.36-1.576-0.557
				c-0.104-0.04-0.213-0.077-0.315-0.118c-0.588-0.233-1.155-0.482-1.706-0.742c-0.137-0.065-0.269-0.133-0.404-0.198
				c-0.454-0.226-0.895-0.457-1.32-0.7c-0.075-0.043-0.158-0.08-0.232-0.123c-0.049-0.029-0.095-0.059-0.143-0.088
				c-0.086-0.051-0.169-0.104-0.254-0.155c-0.264-0.161-0.521-0.325-0.772-0.492c-0.091-0.062-0.183-0.121-0.271-0.184
				c-0.31-0.214-0.611-0.431-0.899-0.655c-0.008-0.006-0.017-0.011-0.024-0.018c-0.294-0.229-0.573-0.466-0.845-0.706
				c-0.08-0.069-0.157-0.141-0.235-0.212c-0.196-0.181-0.387-0.364-0.571-0.55c-0.516-0.521-0.985-1.06-1.395-1.62
				c-1.281-1.757-2.019-3.696-2.1-5.755c-0.09-2.227,0.596-4.385,1.9-6.382c1.294-1.977,3.196-3.799,5.563-5.373
				c2.349-1.563,5.158-2.888,8.292-3.886c3.119-0.993,6.568-1.666,10.222-1.932l80.652-5.854c1.771,1.633,3.93,3.145,6.397,4.498
				c2.486,1.362,5.281,2.562,8.306,3.554c3.039,1,6.304,1.789,9.707,2.331c3.414,0.542,6.958,0.833,10.545,0.833
				c0.404,0,0.81-0.004,1.215-0.012c0.406-0.008,0.812-0.018,1.218-0.033c0.406-0.015,0.812-0.033,1.218-0.056
				c0.406-0.023,0.813-0.051,1.219-0.081c5.239-0.394,9.963-1.387,14.001-2.838c4.01-1.44,7.325-3.326,9.801-5.514
				c2.447-2.165,4.064-4.617,4.719-7.224C1381.216,21.222,1380.924,18.505,1379.572,15.769z M1301.783,68.669
				c0.461-1.144,1.279-2.2,2.385-3.117c1.102-0.912,2.49-1.688,4.102-2.273c1.607-0.584,3.438-0.981,5.431-1.139
				c0.158-0.012,0.315-0.022,0.474-0.032c0.157-0.009,0.314-0.018,0.472-0.023s0.314-0.011,0.471-0.014s0.313-0.005,0.47-0.005
				c1.811,0,3.58,0.205,5.239,0.582c1.662,0.378,3.217,0.929,4.591,1.623c1.379,0.696,2.58,1.539,3.53,2.494
				c0.954,0.958,1.655,2.033,2.03,3.193c0.408,1.265,0.389,2.512,0,3.681c-0.393,1.175-1.156,2.272-2.233,3.232
				c-1.081,0.966-2.475,1.792-4.118,2.421c-1.647,0.629-3.542,1.06-5.616,1.229c-0.164,0.014-0.329,0.026-0.492,0.035
				c-0.164,0.011-0.328,0.019-0.491,0.025c-0.164,0.007-0.328,0.012-0.491,0.016c-0.163,0.003-0.325,0.005-0.487,0.005
				c-1.891,0-3.732-0.222-5.454-0.632c-1.718-0.407-3.312-1.001-4.705-1.743c-1.39-0.739-2.578-1.627-3.495-2.626
				c-0.913-0.994-1.555-2.097-1.855-3.273C1301.213,71.055,1301.318,69.818,1301.783,68.669z M1356.863,19.573
				c-0.014,0.108-0.057,0.215-0.079,0.321c-0.026,0.122-0.09,0.247-0.09,0.367c0,0,0,0.001,0,0.002c0,0.106-0.077,0.209-0.12,0.313
				c-0.047,0.118-0.081,0.239-0.141,0.354c-0.045,0.09-0.105,0.175-0.158,0.263c-0.075,0.127-0.144,0.257-0.232,0.381
				c-0.072,0.099-0.161,0.192-0.241,0.29c-0.088,0.106-0.167,0.216-0.266,0.32c-0.11,0.115-0.24,0.225-0.362,0.337
				c-0.087,0.079-0.164,0.161-0.257,0.238c-0.001,0.001-0.001,0.001-0.003,0.003c-0.11,0.091-0.239,0.176-0.357,0.265
				c-0.123,0.091-0.237,0.185-0.367,0.271c-0.1,0.065-0.213,0.126-0.317,0.189c-0.168,0.102-0.33,0.207-0.511,0.304
				c-0.111,0.061-0.235,0.112-0.352,0.17c-0.188,0.093-0.372,0.188-0.571,0.275c-0.104,0.045-0.22,0.083-0.326,0.126
				c-0.227,0.091-0.45,0.184-0.688,0.267c-0.001,0-0.003,0-0.004,0c-0.115,0.041-0.243,0.073-0.363,0.111
				c-0.24,0.076-0.478,0.155-0.73,0.222c-0.212,0.057-0.438,0.103-0.657,0.152c-0.175,0.04-0.343,0.085-0.522,0.121
				c-0.228,0.045-0.468,0.078-0.703,0.115c-0.185,0.03-0.362,0.066-0.553,0.091c-0.215,0.029-0.44,0.046-0.66,0.068
				c-0.226,0.023-0.445,0.053-0.676,0.069c-0.144,0.01-0.287,0.019-0.432,0.027c-0.143,0.008-0.286,0.015-0.43,0.019
				c-0.144,0.007-0.287,0.01-0.43,0.013c-0.144,0.002-0.286,0.003-0.43,0.003c-1.66,0-3.291-0.171-4.826-0.486
				c-1.531-0.314-2.964-0.772-4.23-1.347c-1.263-0.57-2.358-1.256-3.221-2.028c-0.86-0.769-1.488-1.622-1.819-2.533
				c-0.093-0.255-0.159-0.508-0.201-0.758c-0.015-0.084-0.014-0.166-0.022-0.248c-0.018-0.166-0.037-0.331-0.034-0.494
				c0.002-0.099,0.02-0.194,0.029-0.291c0.014-0.146,0.023-0.29,0.055-0.433c0.021-0.099,0.055-0.196,0.084-0.295
				c0.031-0.106,0.052-0.216,0.092-0.32c0.012-0.029,0.029-0.057,0.042-0.086c0.35-0.854,0.988-1.646,1.88-2.336
				c0.918-0.71,2.098-1.313,3.485-1.769c1.385-0.455,2.978-0.764,4.727-0.886c0.139-0.01,0.277-0.018,0.416-0.025
				c0.139-0.007,0.277-0.013,0.415-0.018c0.139-0.006,0.276-0.009,0.415-0.011c0.138-0.003,0.275-0.004,0.412-0.004
				c1.6,0,3.175,0.159,4.66,0.453c1.487,0.295,2.889,0.725,4.139,1.265c1.253,0.542,2.356,1.197,3.244,1.94
				c0.89,0.745,1.563,1.58,1.952,2.479C1356.845,18.147,1356.95,18.874,1356.863,19.573z"/>
			<path fill="#FFFFFF" d="M1287.233,90.534c2.687,1.706,5.708,3.186,8.984,4.398c3.294,1.221,6.841,2.171,10.554,2.816
				c3.725,0.647,7.607,0.988,11.564,0.988c0.486,0,0.973-0.006,1.459-0.017c0.488-0.01,0.976-0.025,1.465-0.046
				s0.978-0.047,1.468-0.078c0.489-0.031,0.979-0.068,1.471-0.109c6.024-0.517,11.501-1.817,16.224-3.714
				c4.686-1.882,8.604-4.342,11.577-7.189c2.938-2.814,4.943-6,5.859-9.378c0.902-3.328,0.748-6.837-0.608-10.361
				c-1.229-3.198-3.343-6.139-6.119-8.744c-2.742-2.574-6.14-4.826-9.986-6.682c-3.813-1.839-8.081-3.292-12.613-4.284
				c-4.511-0.987-9.303-1.521-14.196-1.521c-0.42,0-0.84,0.004-1.262,0.012c-0.42,0.008-0.843,0.02-1.266,0.036
				c-0.422,0.016-0.846,0.035-1.27,0.06c-0.424,0.023-0.849,0.052-1.273,0.084c-3.835,0.291-7.462,0.894-10.82,1.766
				c-3.371,0.875-6.481,2.023-9.267,3.403c-2.803,1.389-5.281,3.015-7.367,4.837c-2.104,1.839-3.811,3.879-5.047,6.079
				l-42.184,3.309c-0.299,0.023-0.597,0.048-0.894,0.073c-0.297,0.027-0.594,0.055-0.891,0.084
				c-0.295,0.028-0.591,0.059-0.886,0.089c-0.294,0.031-0.588,0.063-0.882,0.096c-0.78-0.004-1.549-0.036-2.312-0.079
				c-0.196-0.012-0.392-0.023-0.586-0.037c-0.703-0.051-1.398-0.111-2.083-0.192c-0.056-0.007-0.113-0.011-0.169-0.018
				c-0.733-0.09-1.452-0.202-2.162-0.327c-0.176-0.031-0.35-0.064-0.524-0.098c-0.628-0.119-1.247-0.249-1.853-0.396
				c-0.064-0.016-0.132-0.026-0.195-0.042c-0.019-0.005-0.036-0.011-0.055-0.016c-0.668-0.165-1.317-0.351-1.954-0.548
				c-0.16-0.05-0.317-0.102-0.476-0.153c-0.537-0.175-1.063-0.36-1.576-0.557c-0.104-0.04-0.213-0.077-0.315-0.118
				c-0.588-0.233-1.155-0.482-1.706-0.742c-0.137-0.065-0.269-0.133-0.404-0.198c-0.454-0.226-0.895-0.457-1.32-0.7
				c-0.075-0.043-0.158-0.08-0.232-0.123c-0.049-0.029-0.095-0.059-0.143-0.088c-0.086-0.051-0.169-0.104-0.254-0.155
				c-0.264-0.161-0.521-0.325-0.772-0.492c-0.091-0.062-0.183-0.121-0.271-0.184c-0.31-0.214-0.611-0.431-0.899-0.655
				c-0.008-0.006-0.017-0.011-0.024-0.018c-0.294-0.229-0.573-0.466-0.845-0.706c-0.08-0.069-0.157-0.141-0.235-0.212
				c-0.196-0.181-0.387-0.364-0.571-0.55c-0.516-0.521-0.985-1.06-1.395-1.62c-1.281-1.757-2.019-3.696-2.1-5.755
				c-0.09-2.227,0.596-4.385,1.9-6.382c1.294-1.977,3.196-3.799,5.563-5.373c2.349-1.563,5.158-2.888,8.292-3.886
				c3.119-0.993,6.568-1.666,10.222-1.932l80.652-5.854c1.771,1.633,3.93,3.145,6.397,4.498c2.486,1.362,5.281,2.562,8.306,3.554
				c3.039,1,6.304,1.789,9.707,2.331c3.414,0.542,6.958,0.833,10.545,0.833c0.404,0,0.81-0.004,1.215-0.012
				c0.406-0.008,0.812-0.018,1.218-0.033c0.406-0.015,0.812-0.033,1.218-0.056c0.406-0.023,0.813-0.051,1.219-0.081
				c5.239-0.394,9.963-1.387,14.001-2.838c4.01-1.44,7.325-3.326,9.801-5.514c2.447-2.165,4.064-4.617,4.719-7.224
				c0.646-2.572,0.354-5.29-0.997-8.025c-1.228-2.485-3.227-4.775-5.798-6.806c-2.545-2.01-5.656-3.771-9.149-5.223
				c-3.467-1.44-7.319-2.581-11.386-3.359c-4.049-0.775-8.324-1.195-12.662-1.195c-0.372,0-0.744,0.003-1.118,0.01
				c-0.372,0.006-0.745,0.015-1.119,0.027s-0.747,0.028-1.122,0.048c-0.374,0.019-0.749,0.041-1.123,0.065
				c-3.287,0.223-6.376,0.689-9.224,1.36c-2.857,0.673-5.479,1.553-7.82,2.599c-2.354,1.051-4.426,2.271-6.168,3.619
				c-1.754,1.357-3.177,2.849-4.211,4.427l-78.936,5.481c-7.758,0.539-15.117,1.91-21.822,3.943
				c-6.774,2.053-12.927,4.796-18.158,8.06c-5.319,3.317-9.716,7.19-12.848,11.442c-3.197,4.342-5.089,9.092-5.286,14.055
				c-0.104,2.588,0.254,5.108,1.04,7.536c0.795,2.455,2.025,4.812,3.654,7.042c1.645,2.253,3.691,4.374,6.1,6.335
				c2.43,1.977,5.223,3.786,8.332,5.399c-3.177,2.139-6.088,4.47-8.681,6.965c-2.622,2.522-4.922,5.216-6.842,8.047
				c-1.944,2.867-3.501,5.879-4.61,9.003c-1.123,3.166-1.788,6.449-1.928,9.813l-0.297,7.26l40.727,31.561l-1.66-42.156
				c-0.105-2.668,0.544-5.258,1.806-7.672c1.249-2.393,3.1-4.615,5.419-6.58c2.301-1.949,5.066-3.648,8.174-5.01
				c3.089-1.354,6.524-2.379,10.189-2.986c0.354-0.017,0.71-0.032,1.066-0.05c0.356-0.019,0.713-0.038,1.07-0.059
				c0.357-0.021,0.715-0.044,1.073-0.068c0.357-0.025,0.715-0.053,1.071-0.082c0.327-0.027,0.65-0.07,0.972-0.121
				c0.32-0.051,0.64-0.11,0.955-0.168c0.316-0.059,0.63-0.117,0.941-0.167c0.311-0.05,0.619-0.091,0.926-0.115l39.193-3.234
				C1282.235,86.921,1284.567,88.839,1287.233,90.534z M1301.783,68.669c0.461-1.144,1.279-2.2,2.385-3.117
				c1.102-0.912,2.49-1.688,4.102-2.273c1.607-0.584,3.438-0.981,5.431-1.139c0.158-0.012,0.315-0.022,0.474-0.032
				c0.157-0.009,0.314-0.018,0.472-0.023s0.314-0.011,0.471-0.014s0.313-0.005,0.47-0.005c1.811,0,3.58,0.205,5.239,0.582
				c1.662,0.378,3.217,0.929,4.591,1.623c1.379,0.696,2.58,1.539,3.53,2.494c0.954,0.958,1.655,2.033,2.03,3.193
				c0.408,1.265,0.389,2.512,0,3.681c-0.393,1.175-1.156,2.272-2.233,3.232c-1.081,0.966-2.475,1.792-4.118,2.421
				c-1.647,0.629-3.542,1.06-5.616,1.229c-0.164,0.014-0.329,0.026-0.492,0.035c-0.164,0.011-0.328,0.019-0.491,0.025
				c-0.164,0.007-0.328,0.012-0.491,0.016c-0.163,0.003-0.325,0.005-0.487,0.005c-1.891,0-3.732-0.222-5.454-0.632
				c-1.718-0.407-3.312-1.001-4.705-1.743c-1.39-0.739-2.578-1.627-3.495-2.626c-0.913-0.994-1.555-2.097-1.855-3.273
				C1301.213,71.055,1301.318,69.818,1301.783,68.669z M1330.479,17.748c0.002-0.099,0.02-0.194,0.029-0.291
				c0.014-0.146,0.023-0.29,0.055-0.433c0.021-0.099,0.055-0.196,0.084-0.295c0.031-0.106,0.052-0.216,0.092-0.32
				c0.012-0.029,0.029-0.057,0.042-0.086c0.35-0.854,0.988-1.646,1.88-2.336c0.918-0.71,2.098-1.313,3.485-1.769
				c1.385-0.455,2.978-0.764,4.727-0.886c0.139-0.01,0.277-0.018,0.416-0.025c0.139-0.007,0.277-0.013,0.415-0.018
				c0.139-0.006,0.276-0.009,0.415-0.011c0.138-0.003,0.275-0.004,0.412-0.004c1.6,0,3.175,0.159,4.66,0.453
				c1.487,0.295,2.889,0.725,4.139,1.265c1.253,0.542,2.356,1.197,3.244,1.94c0.89,0.745,1.563,1.58,1.952,2.479
				c0.318,0.734,0.424,1.461,0.337,2.16c-0.014,0.108-0.057,0.215-0.079,0.321c-0.026,0.122-0.09,0.247-0.09,0.367
				c0,0,0,0.001,0,0.002c0,0.106-0.077,0.209-0.12,0.313c-0.047,0.118-0.081,0.239-0.141,0.354c-0.045,0.09-0.105,0.175-0.158,0.263
				c-0.075,0.127-0.144,0.257-0.232,0.381c-0.072,0.099-0.161,0.192-0.241,0.29c-0.088,0.106-0.167,0.216-0.266,0.32
				c-0.11,0.115-0.24,0.225-0.362,0.337c-0.087,0.079-0.164,0.161-0.257,0.238c-0.001,0.001-0.001,0.001-0.003,0.003
				c-0.11,0.091-0.239,0.176-0.357,0.265c-0.123,0.091-0.237,0.185-0.367,0.271c-0.1,0.065-0.213,0.126-0.317,0.189
				c-0.168,0.102-0.33,0.207-0.511,0.304c-0.111,0.061-0.235,0.112-0.352,0.17c-0.188,0.093-0.372,0.188-0.571,0.275
				c-0.104,0.045-0.22,0.083-0.326,0.126c-0.227,0.091-0.45,0.184-0.688,0.267c-0.001,0-0.003,0-0.004,0
				c-0.115,0.041-0.243,0.073-0.363,0.111c-0.24,0.076-0.478,0.155-0.73,0.222c-0.212,0.057-0.438,0.103-0.657,0.152
				c-0.175,0.04-0.343,0.085-0.522,0.121c-0.228,0.045-0.468,0.078-0.703,0.115c-0.185,0.03-0.362,0.066-0.553,0.091
				c-0.215,0.029-0.44,0.046-0.66,0.068c-0.226,0.023-0.445,0.053-0.676,0.069c-0.144,0.01-0.287,0.019-0.432,0.027
				c-0.143,0.008-0.286,0.015-0.43,0.019c-0.144,0.007-0.287,0.01-0.43,0.013c-0.144,0.002-0.286,0.003-0.43,0.003
				c-1.66,0-3.291-0.171-4.826-0.486c-1.531-0.314-2.964-0.772-4.23-1.347c-1.263-0.57-2.358-1.256-3.221-2.028
				c-0.86-0.769-1.488-1.622-1.819-2.533c-0.093-0.255-0.159-0.508-0.201-0.758c-0.015-0.084-0.014-0.166-0.022-0.248
				C1330.496,18.076,1330.477,17.911,1330.479,17.748z"/>
			<polygon fill="#D1D1D1" points="1204.924,320.675 1232.248,349.219 1209.117,153.284 1168.391,121.723 			"/>
			<polygon fill="#2C2C2C" points="1209.117,153.284 1232.148,349.151 1279.415,398.429 1279.415,207.76 			"/>
		</g>
	</g>
</g>
</svg>
